<svg xmlns="http://www.w3.org/2000/svg" viewBox="0 0 64 64">
  <defs>
    <linearGradient id="markGradient" x1="12" x2="52" y1="10" y2="54" gradientUnits="userSpaceOnUse">
      <stop stop-color="#2f5d50" />
      <stop offset="1" stop-color="#df6842" />
    </linearGradient>
  </defs>
  <rect width="64" height="64" rx="14" fill="#eef2ef" />
  <path
    d="M20.2 33.5c-4.2 0-7.2-2.8-7.2-6.5 0-3.4 2.5-6.1 6.1-6.5 1.7-4.6 6-7.5 11-7.5 5.8 0 10.5 3.8 11.6 9.1 4.4.3 7.8 3.6 7.8 7.8 0 4.5-3.7 8-8.4 8H20.2Z"
    fill="#ffffff"
    stroke="#2f5d50"
    stroke-width="3"
    stroke-linejoin="round"
  />
  <path d="M20 45h12c5.7 0 7.3-8 13-8h3" fill="none" stroke="url(#markGradient)" stroke-width="3.5" stroke-linecap="round" />
  <circle cx="20" cy="45" r="4" fill="#ffffff" stroke="#df6842" stroke-width="3" />
  <circle cx="34" cy="45" r="4" fill="#ffffff" stroke="#2f5d50" stroke-width="3" />
  <circle cx="48" cy="37" r="4" fill="#ffffff" stroke="#df6842" stroke-width="3" />
</svg>
