<svg xmlns="http://www.w3.org/2000/svg" viewBox="0 0 64 64" role="img" aria-label="InfraGuide AI">
  <defs>
    <linearGradient id="infraGuideMarkBg" x1="8" x2="56" y1="8" y2="56" gradientUnits="userSpaceOnUse">
      <stop stop-color="#1d4ed8" />
      <stop offset="0.56" stop-color="#0f766e" />
      <stop offset="1" stop-color="#f97316" />
    </linearGradient>
    <filter id="infraGuideMarkShadow" x="-20%" y="-20%" width="140%" height="140%">
      <feDropShadow dx="0" dy="5" stdDeviation="5" flood-color="#1e3a8a" flood-opacity="0.24" />
    </filter>
  </defs>
  <rect x="5" y="5" width="54" height="54" rx="16" fill="url(#infraGuideMarkBg)" filter="url(#infraGuideMarkShadow)" />
  <path
    d="M18.8 33.4c-3.8 0-6.6-2.5-6.6-5.9 0-3.1 2.3-5.5 5.5-5.9 1.7-4.4 5.7-7.1 10.5-7.1 5.4 0 9.6 3.4 10.8 8.2 4.2.3 7.6 3.5 7.6 7.5 0 4.1-3.5 7.2-7.9 7.2H18.8Z"
    fill="rgba(255,255,255,0.93)"
    stroke="rgba(255,255,255,0.72)"
    stroke-width="2.2"
    stroke-linejoin="round"
  />
  <circle cx="36" cy="38" r="12" fill="#ffffff" stroke="#172554" stroke-width="2.4" />
  <circle cx="36" cy="38" r="2.2" fill="#172554" />
  <path d="M41.8 31.2 38.5 41l-8.3 3.8 3.3-9.8 8.3-3.8Z" fill="#f97316" stroke="#172554" stroke-width="1.5" stroke-linejoin="round" />
  <path d="M36 27.8v2.8M36 45.4v2.8M26.9 38H29.7M42.3 38h2.8" stroke="#172554" stroke-width="1.7" stroke-linecap="round" />
</svg>
